<?xml version="1.0" encoding="UTF-8"?>
<svg version="1.1" xmlns="http://www.w3.org/2000/svg" width="624" height="203">
<path d="M0 0 C205.92 0 411.84 0 624 0 C624 66.99 624 133.98 624 203 C418.08 203 212.16 203 0 203 C0 136.01 0 69.02 0 0 Z " fill="#FEFCF8" transform="translate(0,0)"/>
<path d="M0 0 C0 21.78 0 43.56 0 66 C1.65 65.01 3.3 64.02 5 63 C8.64046431 63.26637544 10.65344028 64.32672014 14 66 C14 44.22 14 22.44 14 0 C19 1 19 1 21 2 C21.495 3.485 21.495 3.485 22 5 C24.12046629 6.48490174 24.12046629 6.48490174 26.78515625 7.8203125 C27.78361572 8.35164795 28.7820752 8.8829834 29.81079102 9.43041992 C30.88385498 9.98963135 31.95691895 10.54884277 33.0625 11.125 C35.26109004 12.28909368 37.45900534 13.45446263 39.65625 14.62109375 C40.73777344 15.19327637 41.81929687 15.76545898 42.93359375 16.35498047 C47.65559509 18.88816877 52.30250119 21.55197213 56.91235352 24.28369141 C59.74382927 25.9187411 62.26603132 27.07172858 65.43359375 27.92578125 C69.89945704 29.2709208 73.68104028 30.62105712 77 34 C78.112396 37.59694315 77.93514894 41.03385968 77.78125 44.76953125 C77.76993042 45.80567062 77.75861084 46.84181 77.74694824 47.90934753 C77.70223407 51.21229536 77.60187697 54.5108693 77.5 57.8125 C77.45986676 60.05397367 77.42336573 62.29551553 77.390625 64.53710938 C77.30251676 70.02622683 77.16873241 75.51280103 77 81 C75.35 80.34 73.7 79.68 72 79 C72 64.81 72 50.62 72 36 C69.03 35.01 69.03 35.01 66 34 C63.8298142 32.90913533 61.68501304 31.76688225 59.5625 30.5859375 C58.65951172 30.08593735 58.65951172 30.08593735 57.73828125 29.57583618 C55.82286298 28.51359403 53.91145718 27.44435006 52 26.375 C50.74894423 25.68054566 49.49764376 24.98653196 48.24609375 24.29296875 C43.15601573 21.46597642 38.07068147 18.63605816 33.046875 15.69238281 C32.40943359 15.3208609 31.77199219 14.94933899 31.11523438 14.56655884 C29.34975825 13.53485873 27.58879949 12.49543966 25.828125 11.45556641 C23.08554619 9.77118899 23.08554619 9.77118899 20 10 C20.109601 12.89487018 20.109601 12.89487018 21 16 C23.15144055 17.9058542 23.15144055 17.9058542 25.99609375 19.21875 C27.03056641 19.75886719 28.06503906 20.29898438 29.13085938 20.85546875 C30.22205078 21.39816406 31.31324219 21.94085938 32.4375 22.5 C34.56231563 23.59157704 36.68602563 24.6853091 38.80859375 25.78125 C39.84226074 26.30976562 40.87592773 26.83828125 41.94091797 27.3828125 C46.40449599 29.74248854 50.71179875 32.33748936 55 35 C54.67 36.32 54.34 37.64 54 39 C50.20880597 36.90203082 46.4185508 34.80237826 42.62915039 32.70117188 C41.34034381 31.98684276 40.05128338 31.27297143 38.76196289 30.55957031 C36.9070423 29.53310944 35.05304567 28.50499696 33.19921875 27.4765625 C32.08377686 26.85861816 30.96833496 26.24067383 29.8190918 25.60400391 C27.83603204 24.47568464 25.89839352 23.26559568 24 22 C22.68 22 21.36 22 20 22 C19.86778861 24.33948214 19.86778861 24.33948214 21 27 C23.49766469 29.05382609 26.28757676 30.52753944 29.125 32.0625 C29.87265625 32.48337891 30.6203125 32.90425781 31.390625 33.33789062 C32.87653094 34.17274196 34.36700055 34.99952591 35.86206055 35.81787109 C37.85653517 36.92067412 39.81632488 38.06961303 41.77734375 39.23046875 C44.44052009 40.69279467 46.50207951 41.63201674 49.4375 42.25 C50.613125 42.4975 51.78875 42.745 53 43 C53 43.66 53 44.32 53 45 C54.32 45 55.64 45 57 45 C57 47.31 57 49.62 57 52 C53.19938229 51.30584945 50.23168811 49.60472152 46.87890625 47.7265625 C46.2971312 47.40215179 45.71535614 47.07774109 45.11595154 46.74349976 C43.26232353 45.70835825 41.41245063 44.66669638 39.5625 43.625 C38.32249558 42.93188012 37.08226339 42.23916754 35.84179688 41.546875 C30.85666214 38.75900032 25.88470296 35.96169396 21 33 C21.11448845 34.92625985 21.11448845 34.92625985 22 37 C24.29847487 38.57314972 24.29847487 38.57314972 27.0625 39.75 C27.98160156 40.17796875 28.90070313 40.6059375 29.84765625 41.046875 C30.55792969 41.36140625 31.26820313 41.6759375 32 42 C32 42.66 32 43.32 32 44 C33.65 44.33 35.3 44.66 37 45 C37 45.66 37 46.32 37 47 C38.27230469 47.37705078 38.27230469 47.37705078 39.5703125 47.76171875 C43.25710712 49.09282797 46.52957541 50.8029746 49.875 52.8125 C50.46796875 53.14314453 51.0609375 53.47378906 51.671875 53.81445312 C53.3671875 54.83203125 53.3671875 54.83203125 56 57 C56.3828125 59.76171875 56.3828125 59.76171875 56 62 C51.08076004 60.24171744 46.66125444 57.67990193 42.125 55.125 C41.34769531 54.69058594 40.57039062 54.25617188 39.76953125 53.80859375 C33.78700962 50.46039257 33.78700962 50.46039257 30.97338867 48.81445312 C27.62658245 46.85706127 24.88212791 45.47056096 21 45 C21.57546791 47.83695584 22.36085039 49.54885652 24.75292969 51.23730469 C27.09692875 52.52129879 29.46914781 53.71098939 31.875 54.875 C33.60267455 55.7438861 35.32923843 56.61498411 37.0546875 57.48828125 C37.89870117 57.91189941 38.74271484 58.33551758 39.61230469 58.77197266 C43.76732539 60.90896183 47.75063676 63.30826793 51.75 65.72265625 C54.04924941 67.12383921 54.04924941 67.12383921 57 68 C57.33 70.97 57.66 73.94 58 77 C60.31 77.99 62.62 78.98 65 80 C65 80.66 65 81.32 65 82 C65.763125 82.20625 66.52625 82.4125 67.3125 82.625 C72.44562843 84.53904789 77.19055931 87.37666871 82 90 C82 75.15 82 60.3 82 45 C83.65 45.66 85.3 46.32 87 47 C87.33 62.51 87.66 78.02 88 94 C88.99 94.33 89.98 94.66 91 95 C91 80.15 91 65.3 91 50 C92.65 50.33 94.3 50.66 96 51 C96 68.49 96 85.98 96 104 C91.53435153 102.51145051 88.25634298 101.18569601 84.26171875 98.91796875 C83.19373047 98.31533203 82.12574219 97.71269531 81.02539062 97.09179688 C79.92388672 96.46337891 78.82238281 95.83496094 77.6875 95.1875 C75.50394916 93.9517471 73.32035613 92.71606873 71.13671875 91.48046875 C70.09563965 90.8879834 69.05456055 90.29549805 67.98193359 89.68505859 C64.5813335 87.76341606 61.15634852 85.88955752 57.71801758 84.03637695 C56 83 56 83 54 81 C51.93125966 80.3574765 51.93125966 80.3574765 50 80 C50 79.34 50 78.68 50 78 C47.69 77.34 45.38 76.68 43 76 C43 96.46 43 116.92 43 138 C46.63 138 50.26 138 54 138 C54 122.49 54 106.98 54 91 C57.51610853 92.40644341 60.44531462 93.72349295 63.67578125 95.58203125 C64.57546631 96.09612549 65.47515137 96.61021973 66.40209961 97.13989258 C67.36253174 97.69185303 68.32296387 98.24381348 69.3125 98.8125 C81.44074303 105.73073005 93.69919654 112.39458781 106 119 C106 121.31 106 123.62 106 126 C102.09754354 125.2495276 99.83393163 123.91696581 96 122 C96 137.84 96 153.68 96 170 C73.23 170 50.46 170 27 170 C27 144.59 27 119.18 27 93 C25.35 92.34 23.7 91.68 22 91 C20.28171877 90.208755 18.57318099 89.39601085 16.875 88.5625 C15.60269531 87.94568359 15.60269531 87.94568359 14.3046875 87.31640625 C12 86 12 86 10.5078125 84.27734375 C10.01023437 83.85582031 9.51265625 83.43429688 9 83 C1.61146992 83.72491259 -6.81938272 87.69617985 -12 93 C-14.73357805 98.42838203 -14.00588949 104.82400121 -13.78125 110.72265625 C-13.77383477 112.43613615 -13.77350004 114.14965995 -13.77990723 115.86314392 C-13.77783993 120.34912775 -13.68036405 124.82802886 -13.56219482 129.31225586 C-13.44024709 134.70476303 -13.43813943 140.098517 -13.41569519 145.49217987 C-13.36838392 153.66603473 -13.17005896 161.82364231 -13 170 C-35.77 170 -58.54 170 -82 170 C-82 154.16 -82 138.32 -82 122 C-84.97 123.32 -87.94 124.64 -91 126 C-91.42578125 122.78125 -91.42578125 122.78125 -91 119 C-88.67522099 117.03262707 -86.85160162 115.85852144 -84.1875 114.5 C-83.08873535 113.8975647 -83.08873535 113.8975647 -81.96777344 113.28295898 C-80.29278081 112.36653365 -78.61143199 111.46166955 -76.92529297 110.56591797 C-73.60790548 108.79011065 -70.31960086 106.96461509 -67.03515625 105.12890625 C-61.29221816 101.92051734 -55.53842425 98.73281291 -49.77636719 95.55883789 C-47.91460029 94.51351766 -46.07609291 93.4257306 -44.26269531 92.29858398 C-42 91 -42 91 -40 91 C-40 106.51 -40 122.02 -40 138 C-36.04 138 -32.08 138 -28 138 C-28 117.21 -28 96.42 -28 75 C-42.2959441 82.74363639 -56.50560215 90.47368855 -70.54492188 98.65063477 C-73.97838634 100.53774277 -77.48711546 102.26630346 -81 104 C-81.0506353 96.93419448 -81.0857062 89.8684356 -81.10986328 82.80249023 C-81.11993201 80.39785005 -81.13358785 77.99322214 -81.15087891 75.58862305 C-81.17508874 72.13587416 -81.18647432 68.6832869 -81.1953125 65.23046875 C-81.20563507 64.15226364 -81.21595764 63.07405853 -81.22659302 61.96318054 C-81.22674408 60.96236954 -81.22689514 59.96155853 -81.22705078 58.93041992 C-81.231492 58.04883713 -81.23593323 57.16725433 -81.24050903 56.25895691 C-81 54 -81 54 -79 51 C-78.34 51 -77.68 51 -77 51 C-77 65.52 -77 80.04 -77 95 C-75.515 94.505 -75.515 94.505 -74 94 C-73.67 78.49 -73.34 62.98 -73 47 C-70.525 46.505 -70.525 46.505 -68 46 C-68 60.52 -68 75.04 -68 90 C-64.37 88.02 -60.74 86.04 -57 84 C-55.71867187 83.39414063 -54.43734375 82.78828125 -53.1171875 82.1640625 C-49.87593032 80.62544162 -46.89780986 79.12177099 -44 77 C-43.44070622 73.3865738 -43.44070622 73.3865738 -43.55078125 71.0234375 C-42.66408054 67.76591289 -40.5026834 66.92264448 -37.6875 65.1875 C-35.87173094 64.15543674 -34.04250759 63.15755178 -32.19824219 62.17724609 C-29.69698124 60.8377214 -27.22802774 59.44669854 -24.7578125 58.05078125 C-21.21662045 56.06272691 -17.67428532 54.07738518 -14.11328125 52.125 C-13.36860596 51.71507812 -12.62393066 51.30515625 -11.85668945 50.8828125 C-10 50 -10 50 -8 50 C-8 48.68 -8 47.36 -8 46 C-8.77085937 46.28875 -9.54171875 46.5775 -10.3359375 46.875 C-11.33882813 47.24625 -12.34171875 47.6175 -13.375 48 C-14.37273437 48.37125 -15.37046875 48.7425 -16.3984375 49.125 C-19 50 -19 50 -21 50 C-21 50.66 -21 51.32 -21 52 C-27.75 55 -27.75 55 -30 55 C-30.33 55.99 -30.66 56.98 -31 58 C-33.97 58.495 -33.97 58.495 -37 59 C-37 59.66 -37 60.32 -37 61 C-39.475 61.495 -39.475 61.495 -42 62 C-42 60.02 -42 58.04 -42 56 C-41.21874756 55.56655273 -40.43749512 55.13310547 -39.63256836 54.68652344 C-36.70447634 53.06171134 -33.77660492 51.43650308 -30.84887695 49.81103516 C-29.58724495 49.11068355 -28.32552793 48.41048507 -27.0637207 47.71044922 C-26.45294678 47.37158691 -25.84217285 47.03272461 -25.21289062 46.68359375 C-24.61014313 46.34928345 -24.00739563 46.01497314 -23.38638306 45.67053223 C-21.62392848 44.69082196 -19.86442256 43.7058132 -18.10498047 42.72070312 C-16.28359792 41.71133812 -14.4529011 40.71792824 -12.60205078 39.76367188 C-9.08416502 37.99212926 -9.08416502 37.99212926 -7.0625 34.75 C-7.041875 34.1725 -7.02125 33.595 -7 33 C-13.83942358 35.3027205 -20.12553735 38.54438023 -26.4375 42 C-27.23075684 42.42716309 -28.02401367 42.85432617 -28.84130859 43.29443359 C-32.83406319 45.5152911 -35.30826979 47.26100498 -38 51 C-39.32 51 -40.64 51 -42 51 C-42 49.02 -42 47.04 -42 45 C-41.3201001 44.63237549 -40.6402002 44.26475098 -39.93969727 43.88598633 C-36.81368016 42.19535001 -33.68808767 40.50393011 -30.5625 38.8125 C-29.49322266 38.23435547 -28.42394531 37.65621094 -27.32226562 37.06054688 C-26.26845703 36.49013672 -25.21464844 35.91972656 -24.12890625 35.33203125 C-23.09137207 34.77080566 -22.05383789 34.20958008 -20.98486328 33.63134766 C-17.53936754 31.74824586 -14.12458786 29.81443163 -10.72241211 27.85424805 C-9 27 -9 27 -7 27 C-7 25.68 -7 24.36 -7 23 C-7.66 23.45375 -8.32 23.9075 -9 24.375 C-12 26 -12 26 -15.60546875 26.78125 C-20.68752564 27.99392109 -24.84693491 30.48339812 -29.3125 33.125 C-30.88857576 34.05000485 -32.46787473 34.96954599 -34.05078125 35.8828125 C-34.73825439 36.28902832 -35.42572754 36.69524414 -36.1340332 37.11376953 C-38 38 -38 38 -41 38 C-39.64924225 34.75911795 -38.49421442 33.36768586 -35.39453125 31.73828125 C-34.29987549 31.1498645 -34.29987549 31.1498645 -33.18310547 30.54956055 C-32.40080566 30.14133057 -31.61850586 29.73310059 -30.8125 29.3125 C-29.18536188 28.43122937 -27.55907414 27.54838703 -25.93359375 26.6640625 C-25.1122998 26.22094727 -24.29100586 25.77783203 -23.44482422 25.32128906 C-19.73201208 23.31472432 -16.03839522 21.28297817 -12.375 19.1875 C-11.73022705 18.83921143 -11.0854541 18.49092285 -10.42114258 18.13208008 C-8.42772028 17.03533765 -8.42772028 17.03533765 -6 15 C-5.46595368 12.32110729 -5.46595368 12.32110729 -6 10 C-9.51094606 10.56587378 -12.14229117 11.43054222 -15.203125 13.23046875 C-16.00717773 13.69404785 -16.81123047 14.15762695 -17.63964844 14.63525391 C-19.42709723 15.6981607 -21.2060696 16.77541605 -22.97753906 17.86474609 C-28.18930416 21.01577749 -33.12207028 23.49395471 -38.90625 25.43359375 C-49.31818568 29.29391134 -49.31818568 29.29391134 -57 37 C-61.08055973 50.09436033 -59.1292012 65.54541856 -58 79 C-59.485 79.495 -59.485 79.495 -61 80 C-61 80.66 -61 81.32 -61 82 C-61.66 82 -62.32 82 -63 82 C-63.43349551 75.34959951 -63.72960513 68.70285575 -63.93383789 62.04150391 C-64.01899049 59.78035493 -64.13477275 57.52013329 -64.2824707 55.26220703 C-65.4406201 37.09248599 -65.4406201 37.09248599 -61.46789551 32.0586853 C-57.48759093 28.71889463 -52.97405588 26.72530272 -48.16049194 24.86071777 C-45.20784703 23.6844144 -42.51176986 22.14592612 -39.7578125 20.56640625 C-37.88166082 19.56238526 -36.00406226 18.56106311 -34.125 17.5625 C-25.56552136 12.98219306 -17.1177834 8.25646119 -8.79931641 3.25024414 C-7.71336182 2.60623657 -7.71336182 2.60623657 -6.60546875 1.94921875 C-5.97793701 1.57112061 -5.35040527 1.19302246 -4.70385742 0.8034668 C-3 0 -3 0 0 0 Z " fill="#B7986E" transform="translate(138,22)"/>
<path d="M0 0 C1.94140625 1.12109375 1.94140625 1.12109375 3.5625 2.4375 C6.28480546 4.53019737 8.77560208 5.77995754 12 7 C13.33333333 8 14.66666667 9 16 10 C17.66072849 10.68132451 19.327767 11.34742127 21 12 C23.62467957 13.21418762 23.62467957 13.21418762 26 15 C26.60127258 17.52470398 26.60127258 17.52470398 26.56762695 20.57299805 C26.5672493 21.71395432 26.56687164 22.85491058 26.56648254 24.03044128 C26.54067612 25.26176285 26.51486969 26.49308441 26.48828125 27.76171875 C26.48120651 29.02264847 26.47413177 30.28357819 26.46684265 31.5827179 C26.44357389 34.93221392 26.39867107 38.28000669 26.34332275 41.62902832 C26.29213656 45.04745505 26.2690561 48.46606309 26.24414062 51.88476562 C26.19319837 58.5908036 26.095348 65.29385703 26 72 C42.17 72 58.34 72 75 72 C75 73.65 75 75.3 75 77 C64.44 77 53.88 77 43 77 C43 82.28 43 87.56 43 93 C35.74 93 28.48 93 21 93 C21 68.58 21 44.16 21 19 C18.03 18.01 15.06 17.02 12 16 C9.22265625 14.4296875 9.22265625 14.4296875 7.0625 12.875 C4.12786176 10.77580014 4.12786176 10.77580014 1 9 C1 8.34 1 7.68 1 7 C-6.2220501 6.04105559 -10.79307516 9.31107712 -16.8125 13 C-18.6919528 14.12843414 -20.57336598 15.25361175 -22.45703125 16.375 C-23.28178955 16.87773438 -24.10654785 17.38046875 -24.95629883 17.8984375 C-27 19 -27 19 -29 19 C-29 43.42 -29 67.84 -29 93 C-36.26 93 -43.52 93 -51 93 C-51 87.72 -51 82.44 -51 77 C-61.56 77 -72.12 77 -83 77 C-83 75.35 -83 73.7 -83 72 C-66.83 72 -50.66 72 -34 72 C-34 53.19 -34 34.38 -34 15 C-29.50375 12.339375 -25.0075 9.67875 -20.375 6.9375 C-18.96782715 6.0930835 -17.5606543 5.24866699 -16.11083984 4.37866211 C-14.98887207 3.72647705 -13.8669043 3.07429199 -12.7109375 2.40234375 C-12.13706299 2.05175903 -11.56318848 1.70117432 -10.97192383 1.33996582 C-6.92679526 -0.97534936 -4.46777138 -1.294269 0 0 Z " fill="#F9F5EF" transform="translate(149,93)"/>
<path d="M0 0 C5.28 0 10.56 0 16 0 C16 0.66 16 1.32 16 2 C16.8353125 2.0928125 16.8353125 2.0928125 17.6875 2.1875 C21.09262606 3.38389564 22.69850973 5.24637682 25 8 C25.63110352 11.15039062 25.63110352 11.15039062 25.62890625 14.65625 C25.63180664 16.56083984 25.63180664 16.56083984 25.63476562 18.50390625 C25.61091797 19.82261719 25.58707031 21.14132813 25.5625 22.5 C25.57345703 23.81871094 25.58441406 25.13742188 25.59570312 26.49609375 C25.51292371 37.3677897 25.51292371 37.3677897 21 42 C18 44 18 44 0 44 C0 29.48 0 14.96 0 0 Z " fill="#977F60" transform="translate(281,119)"/>
<path d="M0 0 C17 0 17 0 23 5 C24.17635297 7.35270593 24.13359359 8.820752 24.125 11.4375 C24.12886719 12.61119141 24.12886719 12.61119141 24.1328125 13.80859375 C24 16 24 16 23 19 C22.34 19 21.68 19 21 19 C21.49113281 19.79664063 21.98226563 20.59328125 22.48828125 21.4140625 C24.39227648 25.9305163 24.33777151 29.54319311 24.1875 34.375 C24.16719727 35.62216797 24.16719727 35.62216797 24.14648438 36.89453125 C24.11139059 38.92997066 24.05759228 40.96507291 24 43 C22.02 43 20.04 43 18 43 C18 37.39 18 31.78 18 26 C12.06 25.01 12.06 25.01 6 24 C6 30.27 6 36.54 6 43 C4.02 43 2.04 43 0 43 C0 28.81 0 14.62 0 0 Z " fill="#917858" transform="translate(324,120)"/>
<path d="M0 0 C14 0 14 0 20 3 C22.83134259 7.62452623 23.78423272 12.12439992 23.6015625 17.5546875 C22.63927461 21.46632527 20.51852827 23.39472438 17.37890625 25.79296875 C13.42510867 27.79908279 10.35804915 27.47666163 6 27 C6 32.28 6 37.56 6 43 C4.02 43 2.04 43 0 43 C0 28.81 0 14.62 0 0 Z " fill="#917858" transform="translate(391,120)"/>
<path d="M0 0 C3.3 0 6.6 0 10 0 C10.16604736 1.08716309 10.16604736 1.08716309 10.33544922 2.19628906 C10.84780383 5.54765337 11.3613963 8.8988269 11.875 12.25 C12.13603516 13.95929688 12.13603516 13.95929688 12.40234375 15.703125 C13.41017203 22.27267229 14.46825076 28.8271306 15.63720703 35.37011719 C15.99324718 37.95104884 16.06530276 40.39847937 16 43 C14.02 43 12.04 43 10 43 C9.67 42.01 9.34 41.02 9 40 C5.7 39.67 2.4 39.34 -1 39 C-1 40.32 -1 41.64 -1 43 C-2.98 43 -4.96 43 -7 43 C-6.32496947 38.8047817 -5.64949174 34.60963569 -4.97363281 30.41455078 C-4.74467436 28.99302019 -4.5158296 27.57147128 -4.28710938 26.14990234 C-2.88387305 17.42891169 -1.46425971 8.71099904 0 0 Z " fill="#92795A" transform="translate(479,120)"/>
<path d="M0 0 C2.31 0 4.62 0 7 0 C7 5.94 7 11.88 7 18 C10.96 18 14.92 18 19 18 C19 12.06 19 6.12 19 0 C20.65 0 22.3 0 24 0 C24 14.19 24 28.38 24 43 C22.02 43 20.04 43 18 43 C18 36.73 18 30.46 18 24 C14.37 24 10.74 24 7 24 C7 30.6 7 37.2 7 44 C5.02 44 3.04 44 1 44 C0 43 0 43 -0.12025452 41.24729919 C-0.11803391 40.48562943 -0.11581329 39.72395966 -0.11352539 38.93920898 C-0.11344986 38.07839218 -0.11337433 37.21757538 -0.11329651 36.33067322 C-0.10813522 35.39526199 -0.10297394 34.45985077 -0.09765625 33.49609375 C-0.0962413 32.54307877 -0.09482635 31.59006378 -0.09336853 30.60816956 C-0.08775152 27.55124835 -0.07519616 24.49439923 -0.0625 21.4375 C-0.05748719 19.37044376 -0.05292391 17.30338638 -0.04882812 15.23632812 C-0.03777656 10.15752412 -0.02050055 5.0787743 0 0 Z " fill="#937A5B" transform="translate(431,120)"/>
<path d="M0 0 C2.31 0 4.62 0 7 0 C7.02505615 1.08531006 7.0501123 2.17062012 7.07592773 3.28881836 C7.16983755 7.301316 7.27009767 11.31363382 7.37231445 15.32592773 C7.41572573 17.06514288 7.45739612 18.80440235 7.49731445 20.54370117 C7.55486768 23.03838488 7.6186042 25.5328441 7.68359375 28.02734375 C7.70030624 28.80963852 7.71701874 29.59193329 7.73423767 30.39793396 C7.50648731 33.99871781 7.50648731 33.99871781 9 37 C12.5 37.16666667 12.5 37.16666667 16 37 C18.00503509 34.99496491 17.25588663 30.99974556 17.31640625 28.24609375 C17.33718735 27.47064713 17.35796844 26.6952005 17.37937927 25.89625549 C17.44495802 23.41009692 17.50379799 20.92382955 17.5625 18.4375 C17.60567733 16.75584796 17.64929136 15.07420706 17.69335938 13.39257812 C17.80064779 9.26183129 17.90189132 5.13097464 18 1 C19.98 1 21.96 1 24 1 C24.07432418 6.03536777 24.12868401 11.07041408 24.16479492 16.10620117 C24.1798534 17.81817184 24.20030455 19.53010411 24.22631836 21.24194336 C24.2628319 23.70696505 24.27975562 26.17147535 24.29296875 28.63671875 C24.30845261 29.39836838 24.32393646 30.16001801 24.33988953 30.94474792 C24.34132374 35.50429699 23.78672352 38.36024126 21 42 C17.32315873 45.48573725 14.30509948 45.55945035 9.41015625 45.4296875 C5.75479727 44.77800276 4.19334281 42.87876244 2 40 C1.34 39.34 0.68 38.68 0 38 C-0.17532289 35.13111419 -0.23137614 32.36007355 -0.1953125 29.4921875 C-0.1924826 28.65156769 -0.18965271 27.81094788 -0.18673706 26.94485474 C-0.1755243 24.25475954 -0.15041803 21.5649949 -0.125 18.875 C-0.1149716 17.05339022 -0.10584551 15.23177523 -0.09765625 13.41015625 C-0.07558142 8.93997642 -0.04104434 4.47004429 0 0 Z " fill="#957D5E" transform="translate(511,119)"/>
<path d="M0 0 C0.33 0.99 0.66 1.98 1 3 C2.0209375 3.8353125 2.0209375 3.8353125 3.0625 4.6875 C5.93746503 8.11890987 5.29248064 10.61279047 5 15 C3.02 15 1.04 15 -1 15 C-1 13.02 -1 11.04 -1 9 C-4.49384279 7.83538574 -7.33655389 7.86431681 -11 8 C-12.2538087 9.04788519 -12.2538087 9.04788519 -12.28515625 11.375 C-12.25905961 14.04388239 -12.25905961 14.04388239 -10.49609375 15.625 C-9.47708984 16.305625 -9.47708984 16.305625 -8.4375 17 C-7.71175781 17.50144531 -6.98601563 18.00289062 -6.23828125 18.51953125 C-5.49964844 19.00808594 -4.76101563 19.49664062 -4 20 C2.76218787 24.64328181 2.76218787 24.64328181 5 28 C5.45143221 33.50747298 5.34191441 37.36444131 2 42 C-2.6784705 44.90065171 -6.46386232 45.57044349 -11.91015625 44.6953125 C-15.69029431 43.43762171 -17.09077417 41.38733615 -19 38 C-19.3835757 35.18879389 -19.24636514 32.85783561 -19 30 C-17.02 30 -15.04 30 -13 30 C-12.34 32.31 -11.68 34.62 -11 37 C-8.66705225 37.04241723 -6.33297433 37.04092937 -4 37 C-2.69172443 35.89668301 -2.69172443 35.89668301 -2.6484375 33.16015625 C-2.67298189 29.91242364 -2.67298189 29.91242364 -4.9765625 28.05859375 C-6.28753906 27.25615234 -6.28753906 27.25615234 -7.625 26.4375 C-8.53378906 25.85355469 -9.44257812 25.26960938 -10.37890625 24.66796875 C-11.67634766 23.84232422 -11.67634766 23.84232422 -13 23 C-17.51778374 19.66779768 -19.60053436 17.54659346 -20.5 11.8125 C-19.8908135 7.16745297 -18.58450016 4.92648364 -15.421875 1.53515625 C-10.72380895 -1.44281142 -5.33769912 -0.5779163 0 0 Z " fill="#957D5F" transform="translate(571,119)"/>
<path d="M0 0 C3.6875 0.1875 3.6875 0.1875 7.6875 2.1875 C7.6875 17.3675 7.6875 32.5475 7.6875 48.1875 C4.0575 48.1875 0.4275 48.1875 -3.3125 48.1875 C-4.56683458 44.42449626 -4.41945422 40.91539091 -4.375 37 C-4.37048828 36.25041016 -4.36597656 35.50082031 -4.36132812 34.72851562 C-4.34956354 32.88147617 -4.33162865 31.03447787 -4.3125 29.1875 C-6.2925 29.1875 -8.2725 29.1875 -10.3125 29.1875 C-10.30089844 30.47527344 -10.28929687 31.76304687 -10.27734375 33.08984375 C-10.2679673 34.76822772 -10.25886695 36.44661326 -10.25 38.125 C-10.24162109 38.97513672 -10.23324219 39.82527344 -10.22460938 40.70117188 C-10.22138672 41.51005859 -10.21816406 42.31894531 -10.21484375 43.15234375 C-10.20960693 43.9012085 -10.20437012 44.65007324 -10.19897461 45.42163086 C-10.3125 47.1875 -10.3125 47.1875 -11.3125 48.1875 C-12.99858966 48.25955511 -14.68750659 48.27136068 -16.375 48.25 C-17.29410156 48.24097656 -18.21320313 48.23195312 -19.16015625 48.22265625 C-19.87042969 48.21105469 -20.58070313 48.19945312 -21.3125 48.1875 C-20.9825 47.1975 -20.6525 46.2075 -20.3125 45.1875 C-18.3325 45.1875 -16.3525 45.1875 -14.3125 45.1875 C-14.3125 38.5875 -14.3125 31.9875 -14.3125 25.1875 C-10.6825 25.1875 -7.0525 25.1875 -3.3125 25.1875 C-3.3125 31.4575 -3.3125 37.7275 -3.3125 44.1875 C-1.3325 44.1875 0.6475 44.1875 2.6875 44.1875 C2.6875 29.9975 2.6875 15.8075 2.6875 1.1875 C1.0375 1.1875 -0.6125 1.1875 -2.3125 1.1875 C-2.3125 7.1275 -2.3125 13.0675 -2.3125 19.1875 C-6.2725 19.1875 -10.2325 19.1875 -14.3125 19.1875 C-14.3125 13.2475 -14.3125 7.3075 -14.3125 1.1875 C-12.9925 1.1875 -11.6725 1.1875 -10.3125 1.1875 C-10.3125 6.7975 -10.3125 12.4075 -10.3125 18.1875 C-8.3325 18.1875 -6.3525 18.1875 -4.3125 18.1875 C-4.32410156 16.97191406 -4.33570313 15.75632813 -4.34765625 14.50390625 C-4.35703278 12.91927236 -4.36613313 11.33463682 -4.375 9.75 C-4.38337891 8.94755859 -4.39175781 8.14511719 -4.40039062 7.31835938 C-4.4090143 5.27454779 -4.3647815 3.23066098 -4.3125 1.1875 C-3.3125 0.1875 -3.3125 0.1875 0 0 Z " fill="#EDD8B5" transform="translate(452.3125,118.8125)"/>
<path d="M0 0 C4.60209225 -0.17700355 6.78370866 -0.10814567 11 2 C11 13.22 11 24.44 11 36 C8.03 36 5.06 36 2 36 C-1.4051436 29.1897128 -0.11810725 19.35037391 -0.0625 11.9375 C-0.05798828 10.78572266 -0.05347656 9.63394531 -0.04882812 8.44726562 C-0.03714426 5.63145482 -0.02076281 2.81575602 0 0 Z " fill="#E5D4B7" transform="translate(365,119)"/>
<path d="M0 0 C1.45742463 -0.08096803 2.91612807 -0.13917774 4.375 -0.1875 C5.18710937 -0.22230469 5.99921875 -0.25710937 6.8359375 -0.29296875 C7.55007813 -0.19628906 8.26421875 -0.09960938 9 0 C11.36008817 3.54013225 11.23463644 5.01121955 11.1953125 9.19921875 C11.18564453 11.01196289 11.18564453 11.01196289 11.17578125 12.86132812 C11.15902344 14.12396484 11.14226562 15.38660156 11.125 16.6875 C11.11597656 17.96173828 11.10695313 19.23597656 11.09765625 20.54882812 C11.07405641 23.69940627 11.04113194 26.84960983 11 30 C7.74696956 31.62651522 4.60774398 31.11453156 1 31 C0 30 0 30 -0.11352539 27.13256836 C-0.10828857 25.88096924 -0.10305176 24.62937012 -0.09765625 23.33984375 C-0.0962413 22.67537735 -0.09482635 22.01091095 -0.09336853 21.3263092 C-0.08775518 19.19666101 -0.07520054 17.06711661 -0.0625 14.9375 C-0.05748671 13.49674631 -0.05292351 12.05599097 -0.04882812 10.61523438 C-0.03778145 7.07678898 -0.02050792 3.53840461 0 0 Z " fill="#E1CEB0" transform="translate(288,126)"/>
<path d="M0 0 C0.72509766 -0.01224609 1.45019531 -0.02449219 2.19726562 -0.03710938 C6.01743278 -0.04759474 8.95185611 0.03889658 12.1875 2.1875 C11.1975 2.6825 11.1975 2.6825 10.1875 3.1875 C9.1975 2.8575 8.2075 2.5275 7.1875 2.1875 C0.2575 1.6925 0.2575 1.6925 -6.8125 1.1875 C-6.8125 15.3775 -6.8125 29.5675 -6.8125 44.1875 C-4.8325 44.1875 -2.8525 44.1875 -0.8125 44.1875 C-0.8125 38.9075 -0.8125 33.6275 -0.8125 28.1875 C0.528125 28.14625 1.86875 28.105 3.25 28.0625 C7.76764051 27.5263876 10.64908115 26.28791972 13.9375 23.12890625 C16.35383756 19.37603198 15.85632961 15.44870306 15.1875 11.1875 C14.31649451 7.7260946 14.31649451 7.7260946 13.1875 5.1875 C16.47852959 5.7549189 18.18846849 6.47533085 20.1875 9.1875 C20.62109375 12.3671875 20.62109375 12.3671875 20.625 16.0625 C20.65400391 17.88394531 20.65400391 17.88394531 20.68359375 19.7421875 C20.10416032 23.76628426 19.04799057 25.35259521 16.1875 28.1875 C11.67552894 30.52704055 8.29030044 31.33703326 3.1875 32.1875 C2.8575 37.1375 2.5275 42.0875 2.1875 47.1875 C-0.7825 47.1875 -3.7525 47.1875 -6.8125 47.1875 C-6.8125 46.5275 -6.8125 45.8675 -6.8125 45.1875 C-7.4725 45.1875 -8.1325 45.1875 -8.8125 45.1875 C-8.83777124 38.93954325 -8.85533344 32.69159959 -8.86743164 26.44360352 C-8.87247298 24.31631986 -8.87930591 22.18903969 -8.88793945 20.06176758 C-8.90001379 17.01122174 -8.90573014 13.96072155 -8.91015625 10.91015625 C-8.91531754 9.95287125 -8.92047882 8.99558624 -8.92579651 8.0092926 C-8.92587204 7.12845505 -8.92594757 6.24761749 -8.92602539 5.34008789 C-8.928246 4.56065323 -8.93046661 3.78121857 -8.93275452 2.97816467 C-8.62990589 -1.5314401 -3.44611586 0.00301497 0 0 Z " fill="#D6C8B4" transform="translate(397.8125,118.8125)"/>
<path d="M0 0 C6.625 -0.125 6.625 -0.125 10 1 C10.07440448 6.15947346 10.12872191 11.31863151 10.16479492 16.47851562 C10.17983995 18.23215173 10.20028104 19.98575047 10.22631836 21.73925781 C10.26289121 24.26637009 10.2797692 26.79298296 10.29296875 29.3203125 C10.30845261 30.09867462 10.32393646 30.87703674 10.33988953 31.6789856 C10.34137494 36.53207045 9.6519623 39.78073549 7 44 C3.38614503 47.43316222 0.4184745 48.31603765 -4.4375 48.5625 C-10.08400963 48.38508235 -12.83312264 46.70389099 -17 43 C-16.67 41.68 -16.34 40.36 -16 39 C-15.38125 39.825 -14.7625 40.65 -14.125 41.5 C-11.56657075 44.06573905 -9.58670773 44.43937421 -6 44.5625 C-2.47217127 44.38374266 -1.05673643 44.03357871 2.0625 42.1875 C5.60051146 38.19297093 5.20670489 33.89928227 5.31640625 28.83203125 C5.33718735 28.03721848 5.35796844 27.2424057 5.37937927 26.42350769 C5.44472087 23.88659237 5.50368808 21.34957427 5.5625 18.8125 C5.60569986 17.09178628 5.64931463 15.37108292 5.69335938 13.65039062 C5.80038648 9.43369887 5.90169724 5.2169038 6 1 C4.02 1 2.04 1 0 1 C0 0.67 0 0.34 0 0 Z " fill="#D0C1AA" transform="translate(529,119)"/>
<path d="M0 0 C0 21.78 0 43.56 0 66 C-0.33 66 -0.66 66 -1 66 C-1 44.88 -1 23.76 -1 2 C-6.94 5.3 -12.88 8.6 -19 12 C-21.908125 13.60875 -24.81625 15.2175 -27.8125 16.875 C-35.6162246 21.1983205 -43.36406474 25.6172178 -51.09692383 30.06591797 C-51.93892334 30.54947754 -52.78092285 31.03303711 -53.6484375 31.53125 C-54.39270996 31.95986328 -55.13698242 32.38847656 -55.90380859 32.83007812 C-57.90376866 33.94629157 -59.9514351 34.97571755 -62 36 C-61.67 51.18 -61.34 66.36 -61 82 C-61.66 82 -62.32 82 -63 82 C-63.43349551 75.34959951 -63.72960513 68.70285575 -63.93383789 62.04150391 C-64.01899049 59.78035493 -64.13477275 57.52013329 -64.2824707 55.26220703 C-65.4406201 37.09248599 -65.4406201 37.09248599 -61.46789551 32.0586853 C-57.48759093 28.71889463 -52.97405588 26.72530272 -48.16049194 24.86071777 C-45.20784703 23.6844144 -42.51176986 22.14592612 -39.7578125 20.56640625 C-37.88166082 19.56238526 -36.00406226 18.56106311 -34.125 17.5625 C-25.56552136 12.98219306 -17.1177834 8.25646119 -8.79931641 3.25024414 C-7.71336182 2.60623657 -7.71336182 2.60623657 -6.60546875 1.94921875 C-5.97793701 1.57112061 -5.35040527 1.19302246 -4.70385742 0.8034668 C-3 0 -3 0 0 0 Z " fill="#E4CAA0" transform="translate(138,22)"/>
<path d="M0 0 C3.65316671 1.24976756 4.78065836 1.67098753 7 5 C7.22705078 8.1862793 7.22705078 8.1862793 7.1953125 12.07421875 C7.1924826 12.7580513 7.18965271 13.44188385 7.18673706 14.1464386 C7.17555684 16.32697165 7.15045691 18.50709145 7.125 20.6875 C7.11496738 22.16731177 7.10584202 23.64712999 7.09765625 25.12695312 C7.07562481 28.751436 7.04111002 32.37567766 7 36 C5.515 36.495 5.515 36.495 4 37 C3.566875 37.928125 3.566875 37.928125 3.125 38.875 C1.5338153 41.8805711 0.10565972 42.57808316 -3 44 C-6.11501302 44.35562823 -9.18256404 44.28384373 -12.3125 44.1875 C-13.56643555 44.16719727 -13.56643555 44.16719727 -14.84570312 44.14648438 C-16.89741498 44.11131217 -18.94879275 44.05751048 -21 44 C-21 42.68 -21 41.36 -21 40 C-19.80761719 39.93941406 -18.61523438 39.87882812 -17.38671875 39.81640625 C-15.82030075 39.73198851 -14.25389512 39.64734113 -12.6875 39.5625 C-11.90181641 39.52318359 -11.11613281 39.48386719 -10.30664062 39.44335938 C-9.54931641 39.40146484 -8.79199219 39.35957031 -8.01171875 39.31640625 C-7.31522217 39.27974854 -6.61872559 39.24309082 -5.90112305 39.20532227 C-3.7783428 39.04418847 -3.7783428 39.04418847 -1 38 C-0.67 37.01 -0.34 36.02 0 35 C0.66 35 1.32 35 2 35 C2.04952706 30.65838175 2.08577954 26.31691425 2.10986328 21.97509766 C2.11990591 20.49883153 2.13354265 19.02258521 2.15087891 17.54638672 C2.17520421 15.42149966 2.1865004 13.29687615 2.1953125 11.171875 C2.20578613 9.8940918 2.21625977 8.61630859 2.22705078 7.29980469 C2.01550278 4.22530701 1.63126908 2.56261648 0 0 Z " fill="#E5D3B6" transform="translate(303,123)"/>
<path d="M0 0 C0.99 0.33 1.98 0.66 3 1 C2.34 1 1.68 1 1 1 C1 2.65 1 4.3 1 6 C1.928125 6.2165625 1.928125 6.2165625 2.875 6.4375 C5 7 5 7 7 8 C7 8.66 7 9.32 7 10 C7.72469482 10.11335693 8.44938965 10.22671387 9.19604492 10.34350586 C12.12483327 11.0292274 14.24679724 12.03529909 16.86328125 13.50390625 C17.74951172 13.99697266 18.63574219 14.49003906 19.54882812 14.99804688 C20.46083984 15.51431641 21.37285156 16.03058594 22.3125 16.5625 C23.24384766 17.08263672 24.17519531 17.60277344 25.13476562 18.13867188 C27.42663795 19.41976974 29.71481613 20.70702105 32 22 C32 22.66 32 23.32 32 24 C33.65 24.33 35.3 24.66 37 25 C37 27.31 37 29.62 37 32 C33.51280588 31.31483283 30.75422738 29.92713432 27.640625 28.234375 C26.08988281 27.39326172 26.08988281 27.39326172 24.5078125 26.53515625 C23.43273437 25.94605469 22.35765625 25.35695313 21.25 24.75 C20.19039062 24.17636719 19.13078125 23.60273437 18.0390625 23.01171875 C12.23394889 19.84987647 6.56144757 16.57329723 1 13 C1.563409 16.22779882 1.563409 16.22779882 3.94140625 18.38671875 C4.80636719 18.81597656 5.67132813 19.24523437 6.5625 19.6875 C11.67221442 22.30976769 16.69147527 25.04419734 21.6875 27.875 C23.08713659 28.66424518 24.48686799 29.45332226 25.88671875 30.2421875 C26.91410156 30.82226562 27.94148438 31.40234375 29 32 C26.29008146 33.07706468 25.23265533 33.09391488 22.48217773 31.98364258 C21.55864502 31.45923584 20.6351123 30.9348291 19.68359375 30.39453125 C18.67232422 29.82283203 17.66105469 29.25113281 16.61914062 28.66210938 C15.56919922 28.05173828 14.51925781 27.44136719 13.4375 26.8125 C12.38369141 26.22146484 11.32988281 25.63042969 10.24414062 25.02148438 C1.34607287 19.92795102 1.34607287 19.92795102 -1 16 C-0.6875 13.75 -0.6875 13.75 0 12 C4.2081091 12.60897918 7.34770108 14.06248854 11.0703125 16.08984375 C12.21371094 16.70923828 13.35710937 17.32863281 14.53515625 17.96679688 C15.73178045 18.62368041 16.92839493 19.28058163 18.125 19.9375 C19.32911703 20.59106635 20.53354137 21.24406686 21.73828125 21.89648438 C30.47379032 26.64919355 30.47379032 26.64919355 34 29 C34.495 27.515 34.495 27.515 35 26 C34.28900146 25.72978027 33.57800293 25.45956055 32.84545898 25.18115234 C27.72292978 23.0547863 22.93010129 20.27316175 18.0625 17.625 C16.99064453 17.0475 15.91878906 16.47 14.81445312 15.875 C3.61567614 9.80061694 3.61567614 9.80061694 0 7 C-0.9375 3.8125 -0.9375 3.8125 -1 1 C-0.67 0.67 -0.34 0.34 0 0 Z " fill="#E7CFA9" transform="translate(158,31)"/>
<path d="M0 0 C5.28 0 10.56 0 16 0 C16 0.33 16 0.66 16 1 C11.05 1 6.1 1 1 1 C1 15.19 1 29.38 1 44 C2.98 44 4.96 44 7 44 C7 37.73 7 31.46 7 25 C16 25 16 25 19 27 C19.2208564 29.95064148 19.28060989 32.68368231 19.1875 35.625 C19.16719727 36.82769531 19.16719727 36.82769531 19.14648438 38.0546875 C19.11109051 40.03674378 19.05728234 42.01845551 19 44 C18.67 44 18.34 44 18 44 C17.67 39.05 17.34 34.1 17 29 C15.02 29 13.04 29 11 29 C11 35.27 11 41.54 11 48 C7.7 48 4.4 48 1 48 C0.05662624 45.16987873 -0.12172829 43.45700082 -0.11352539 40.52856445 C-0.11344986 39.62785721 -0.11337433 38.72714996 -0.11329651 37.79914856 C-0.10813522 36.83031235 -0.10297394 35.86147614 -0.09765625 34.86328125 C-0.0962413 33.86870407 -0.09482635 32.87412689 -0.09336853 31.84941101 C-0.08776761 28.67041018 -0.07521496 25.49147957 -0.0625 22.3125 C-0.05748512 20.15820414 -0.05292219 18.00390718 -0.04882812 15.84960938 C-0.03779787 10.56637916 -0.02053262 5.28320149 0 0 Z " fill="#DFCCAD" transform="translate(323,119)"/>
<path d="M0 0 C2.46800047 1.15173355 4.04783565 2.04783565 6 4 C6.23046875 6.390625 6.23046875 6.390625 6.1875 9.25 C6.16623047 10.72919922 6.16623047 10.72919922 6.14453125 12.23828125 C6 15 6 15 5.375 18.4375 C4.75259719 20.96539552 4.75259719 20.96539552 5.96435547 22.88964844 C7.12511389 25.25494683 7.23266242 26.71363031 7.1953125 29.328125 C7.18564453 30.52695313 7.18564453 30.52695313 7.17578125 31.75 C7.15902344 32.575 7.14226562 33.4 7.125 34.25 C7.11597656 35.09046875 7.10695313 35.9309375 7.09765625 36.796875 C7.07415817 38.86470604 7.03828908 40.93238995 7 43 C3.04 43 -0.92 43 -5 43 C-4.67 41.68 -4.34 40.36 -4 39 C-2.02 39 -0.04 39 2 39 C1.88618103 36.06167355 1.75943449 33.1248935 1.625 30.1875 C1.5940625 29.35412109 1.563125 28.52074219 1.53125 27.66210938 C1.49257813 26.85966797 1.45390625 26.05722656 1.4140625 25.23046875 C1.3826416 24.49207764 1.3512207 23.75368652 1.31884766 22.99291992 C1.09165386 20.68650412 1.09165386 20.68650412 -1 18 C-1 17.01 -1 16.02 -1 15 C-0.34 15 0.32 15 1 15 C1.02703381 13.06257659 1.04641125 11.12504521 1.0625 9.1875 C1.07410156 8.10855469 1.08570313 7.02960938 1.09765625 5.91796875 C1.13624766 2.93487831 1.13624766 2.93487831 0 0 Z " fill="#DACAB1" transform="translate(346,124)"/>
<path d="M0 0 C0.99 0 1.98 0 3 0 C4.95901146 8.56325464 6.61096286 17.16095842 8.125 25.8125 C8.38071777 27.26088257 8.38071777 27.26088257 8.64160156 28.73852539 C9.63375745 34.48188503 10.41590071 40.20072846 11 46 C7.37 46 3.74 46 0 46 C0 44.68 0 43.36 0 42 C1.98 42 3.96 42 6 42 C5.81824219 41.01193359 5.63648438 40.02386719 5.44921875 39.00585938 C4.77120804 35.3095414 4.10252509 31.61158489 3.43652344 27.91308594 C3.14801635 26.31822907 2.85704398 24.72381598 2.56347656 23.12988281 C2.13985119 20.82732039 1.72537144 18.523262 1.3125 16.21875 C1.18125732 15.51633179 1.05001465 14.81391357 0.91479492 14.09020996 C0.07371671 9.32833089 -0.11379237 4.83617566 0 0 Z " fill="#E3CFAF" transform="translate(489,121)"/>
<path d="M0 0 C1.98 0 3.96 0 6 0 C6.1050173 10.39671302 6.02472362 20.64297197 5 31 C3.68 31 2.36 31 1 31 C-0.02250405 24.30139078 -0.11756273 17.7684802 -0.0625 11 C-0.05573242 9.40865234 -0.05573242 9.40865234 -0.04882812 7.78515625 C-0.03713843 5.19004402 -0.02075276 2.59505291 0 0 Z " fill="#927A5A" transform="translate(366,120)"/>
<path d="M0 0 C2.31 0 4.62 0 7 0 C7 14.52 7 29.04 7 44 C6.67 44 6.34 44 6 44 C6 29.81 6 15.62 6 1 C4.35 1 2.7 1 1 1 C1 6.94 1 12.88 1 19 C-2.96 19 -6.92 19 -11 19 C-11 13.06 -11 7.12 -11 1 C-9.68 1 -8.36 1 -7 1 C-7 6.61 -7 12.22 -7 18 C-5.02 18 -3.04 18 -1 18 C-1.01740234 16.17662109 -1.01740234 16.17662109 -1.03515625 14.31640625 C-1.04453278 12.73177236 -1.05363313 11.14713682 -1.0625 9.5625 C-1.07087891 8.76005859 -1.07925781 7.95761719 -1.08789062 7.13085938 C-1.0965143 5.08704779 -1.0522815 3.04316098 -1 1 C-0.67 0.67 -0.34 0.34 0 0 Z " fill="#D1BFA6" transform="translate(449,119)"/>
<path d="M0 0 C3.63 0 7.26 0 11 0 C11 6.27 11 12.54 11 19 C12.98 19 14.96 19 17 19 C17 19.33 17 19.66 17 20 C14.69 20 12.38 20 10 20 C10 14.72 10 9.44 10 4 C8.02 4 6.04 4 4 4 C4.01160156 5.28777344 4.02320313 6.57554687 4.03515625 7.90234375 C4.0445327 9.58072772 4.05363305 11.25911326 4.0625 12.9375 C4.07087891 13.78763672 4.07925781 14.63777344 4.08789062 15.51367188 C4.09111328 16.32255859 4.09433594 17.13144531 4.09765625 17.96484375 C4.10289307 18.7137085 4.10812988 19.46257324 4.11352539 20.23413086 C4 22 4 22 3 23 C1.31391034 23.07205511 -0.37500659 23.08386068 -2.0625 23.0625 C-2.98160156 23.05347656 -3.90070313 23.04445312 -4.84765625 23.03515625 C-5.55792969 23.02355469 -6.26820313 23.01195312 -7 23 C-6.505 21.515 -6.505 21.515 -6 20 C-4.02 20 -2.04 20 0 20 C0 13.4 0 6.8 0 0 Z " fill="#E5D1B0" transform="translate(438,144)"/>
<path d="M0 0 C1.98 0 3.96 0 6 0 C6.02886751 4.14581887 6.04675327 8.29161216 6.0625 12.4375 C6.07087891 13.62150391 6.07925781 14.80550781 6.08789062 16.02539062 C6.09111328 17.15009766 6.09433594 18.27480469 6.09765625 19.43359375 C6.10289307 20.47572021 6.10812988 21.51784668 6.11352539 22.59155273 C6 25 6 25 5 26 C3.35 26 1.7 26 0 26 C0 17.42 0 8.84 0 0 Z " fill="#FDFAF4" transform="translate(292,130)"/>
<path d="M0 0 C1.32 0 2.64 0 4 0 C4 11.88 4 23.76 4 36 C5.65 36 7.3 36 9 36 C9 36.33 9 36.66 9 37 C5.625 37.125 5.625 37.125 2 37 C0 35 0 35 -0.22705078 31.56005859 C-0.22673369 30.08948021 -0.21540987 28.61887858 -0.1953125 27.1484375 C-0.1924826 26.37440582 -0.18965271 25.60037415 -0.18673706 24.80288696 C-0.17552754 22.32676843 -0.15042203 19.8510095 -0.125 17.375 C-0.11497118 15.69792188 -0.10584516 14.02083811 -0.09765625 12.34375 C-0.07558574 8.22902777 -0.04105102 4.11457489 0 0 Z " fill="#EAD7B6" transform="translate(518,120)"/>
<path d="M0 0 C3.29102959 0.5674189 5.00096849 1.28783085 7 4 C7.43359375 7.1796875 7.43359375 7.1796875 7.4375 10.875 C7.46650391 12.69644531 7.46650391 12.69644531 7.49609375 14.5546875 C6.91666032 18.57878426 5.86049057 20.16509521 3 23 C-1.51197106 25.33954055 -4.89719956 26.14953326 -10 27 C-10.33 31.95 -10.66 36.9 -11 42 C-13.97 42 -16.94 42 -20 42 C-20 41.67 -20 41.34 -20 41 C-16.535 40.505 -16.535 40.505 -13 40 C-12.67 35.05 -12.34 30.1 -12 25 C-6.555 23.515 -6.555 23.515 -1 22 C-1 21.01 -1 20.02 -1 19 C-0.26716797 18.31357422 -0.26716797 18.31357422 0.48046875 17.61328125 C3.01703323 14.92021922 2.33643457 12.04788486 2.23828125 8.51953125 C1.94955151 5.4665692 1.188399 2.82244761 0 0 Z " fill="#EBCC95" transform="translate(411,124)"/>
<path d="M0 0 C3.3708965 1.18436904 5.81526469 2.12468744 8 5 C8.88671807 10.53599661 8.6814007 15.53625034 6.3125 20.625 C2.55204172 24.48709228 -1.20613648 25.30064798 -6.5 25.375 C-10.42983214 25.32196583 -11.76501207 25.14744341 -15.1875 23 C-15.785625 22.34 -16.38375 21.68 -17 21 C-16.505 19.515 -16.505 19.515 -16 18 C-15.34 18.66 -14.68 19.32 -14 20 C-9.61661567 21.18735258 -5.35437965 21.47093004 -1.0625 19.875 C2.04338993 18.27236131 2.04338993 18.27236131 3.4375 15.8125 C4.38531073 11.07344635 4.54763841 6.64291524 3 2 C2.01 1.67 1.02 1.34 0 1 C0 0.67 0 0.34 0 0 Z " fill="#EACB95" transform="translate(571,142)"/>
<path d="M0 0 C0.33 0 0.66 0 1 0 C1.12456394 5.46786165 0.74514935 10.54790372 -0.27734375 15.9296875 C-0.40814835 16.64609406 -0.53895294 17.36250061 -0.67372131 18.10061646 C-0.94865937 19.59861832 -1.2269698 21.09600492 -1.50854492 22.59277344 C-1.94005288 24.88858245 -2.36049438 27.18621768 -2.77929688 29.484375 C-3.04884079 30.94543042 -3.31900079 32.40637234 -3.58984375 33.8671875 C-3.71592514 34.55360321 -3.84200653 35.24001892 -3.97190857 35.94723511 C-4.88352444 40.76704887 -4.88352444 40.76704887 -6 43 C-4.02 43 -2.04 43 0 43 C0 41.68 0 40.36 0 39 C3.3 39 6.6 39 10 39 C10.33 40.32 10.66 41.64 11 43 C8.69 43 6.38 43 4 43 C3.67 44.32 3.34 45.64 3 47 C0.03 47 -2.94 47 -6 47 C-7.06736889 40.81235426 -6.76277243 35.82351536 -5.56640625 29.6875 C-5.40961899 28.83317383 -5.25283173 27.97884766 -5.09129333 27.09863281 C-4.59283515 24.39687588 -4.07796835 21.69855755 -3.5625 19 C-3.21960988 17.15775523 -2.87780216 15.31530865 -2.53710938 13.47265625 C-1.70390239 8.97934067 -0.85597551 4.4890314 0 0 Z " fill="#D0C1AB" transform="translate(478,120)"/>
<path d="M0 0 C7.28358209 -0.35820896 7.28358209 -0.35820896 10 1 C11.63102777 4.26205554 11.51981506 7.43555389 11 11 C10 13 10 13 8 14 C5.28114681 14.23059307 2.74008408 14.13475823 0 14 C0 9.38 0 4.76 0 0 Z " fill="#E0CDB0" transform="translate(397,126)"/>
<path d="M0 0 C0 20.79 0 41.58 0 63 C-0.66 63 -1.32 63 -2 63 C-2 43.2 -2 23.4 -2 3 C-3.32 2.67 -4.64 2.34 -6 2 C-2.25 0 -2.25 0 0 0 Z " fill="#E8DDCE" transform="translate(110,97)"/>
<path d="M0 0 C1.45792884 -0.05399736 2.91642712 -0.09279177 4.375 -0.125 C5.18710937 -0.14820312 5.99921875 -0.17140625 6.8359375 -0.1953125 C9 0 9 0 11 2 C11.23046875 4.12890625 11.23046875 4.12890625 11.1875 6.5625 C11.17783203 7.77099609 11.17783203 7.77099609 11.16796875 9.00390625 C11 11 11 11 10 12 C8.50261876 12.0979057 7.00057108 12.12974864 5.5 12.125 C4.6853125 12.12757813 3.870625 12.13015625 3.03125 12.1328125 C1 12 1 12 0 11 C-0.07226502 9.14712498 -0.0838122 7.29166122 -0.0625 5.4375 C-0.05347656 4.42558594 -0.04445313 3.41367188 -0.03515625 2.37109375 C-0.02355469 1.58863281 -0.01195312 0.80617188 0 0 Z " fill="#D7C4A5" transform="translate(330,126)"/>
<path d="M0 0 C0.515625 0.2475 1.03125 0.495 1.5625 0.75 C1.80395508 3.06494141 1.80395508 3.06494141 1.5625 5.75 C-0.0480957 7.35302734 -0.0480957 7.35302734 -2.30078125 8.7109375 C-3.12400879 9.21463867 -3.94723633 9.71833984 -4.79541016 10.23730469 C-9.04504482 12.67037957 -13.30878917 15.06169397 -17.625 17.375 C-27.2566183 21.71589429 -27.2566183 21.71589429 -34.4375 28.75 C-31.4675 27.76 -28.4975 26.77 -25.4375 25.75 C-25.4375 26.41 -25.4375 27.07 -25.4375 27.75 C-26.72759643 28.25403768 -28.01963789 28.75309926 -29.3125 29.25 C-30.03179687 29.5284375 -30.75109375 29.806875 -31.4921875 30.09375 C-33.4375 30.75 -33.4375 30.75 -35.4375 30.75 C-35.4375 28.77 -35.4375 26.79 -35.4375 24.75 C-34.57753418 24.25971313 -34.57753418 24.25971313 -33.70019531 23.75952148 C-31.02895125 22.23611946 -28.35821994 20.71182068 -25.6875 19.1875 C-24.73061279 18.6419043 -23.77372559 18.09630859 -22.7878418 17.53417969 C-16.66107918 14.03613466 -10.5670088 10.4930525 -4.51953125 6.859375 C-2.4375 5.75 -2.4375 5.75 -0.4375 5.75 C-0.4375 4.43 -0.4375 3.11 -0.4375 1.75 C-1.4275 1.75 -2.4175 1.75 -3.4375 1.75 C-3.4375 2.41 -3.4375 3.07 -3.4375 3.75 C-6.4075 4.74 -9.3775 5.73 -12.4375 6.75 C-9.05487472 3.36737472 -5.10426116 -0.52351396 0 0 Z " fill="#E5CCA4" transform="translate(131.4375,31.25)"/>
<path d="M0 0 C3.01488424 0.89631694 4.71802222 1.67912874 6.8125 4.0625 C8.48477884 8.19918975 8.19910477 11.55332677 8 16 C5.03 16 2.06 16 -1 16 C-1.33 13.69 -1.66 11.38 -2 9 C-4.31 9 -6.62 9 -9 9 C-9.33 10.65 -9.66 12.3 -10 14 C-10.99 13.34 -11.98 12.68 -13 12 C-13.3125 9.5 -13.3125 9.5 -13 7 C-11 5 -11 5 -7.5625 4.75 C-4 5 -4 5 -1 7 C-0.8125 10.125 -0.8125 10.125 -1 13 C0.98 13 2.96 13 5 13 C4.855625 11.741875 4.71125 10.48375 4.5625 9.1875 C4.48128906 8.47980469 4.40007813 7.77210938 4.31640625 7.04296875 C4.02829265 4.80603607 4.02829265 4.80603607 3 2 C2.01 1.67 1.02 1.34 0 1 C0 0.67 0 0.34 0 0 Z " fill="#DCC9AB" transform="translate(571,121)"/>
<path d="M0 0 C2 2 2 2 2.453125 4.3984375 C2 7 2 7 -0.140625 8.8515625 C-1.67976563 9.72941406 -1.67976563 9.72941406 -3.25 10.625 C-3.81050049 10.95129395 -4.37100098 11.27758789 -4.94848633 11.61376953 C-6.95223736 12.76813042 -8.97334161 13.88634339 -11 15 C-11.84030762 15.46341797 -12.68061523 15.92683594 -13.54638672 16.40429688 C-20.76277528 20.37729141 -20.76277528 20.37729141 -24.37011719 22.31884766 C-25.61583496 22.99246338 -25.61583496 22.99246338 -26.88671875 23.6796875 C-27.63139404 24.07913574 -28.37606934 24.47858398 -29.14331055 24.89013672 C-31.14969828 25.98694399 -31.14969828 25.98694399 -33 28 C-31.68 28.33 -30.36 28.66 -29 29 C-29.66 29.66 -30.32 30.32 -31 31 C-32.32 31 -33.64 31 -35 31 C-35 29.02 -35 27.04 -35 25 C-34.3201001 24.63237549 -33.6402002 24.26475098 -32.93969727 23.88598633 C-29.81368016 22.19535001 -26.68808767 20.50393011 -23.5625 18.8125 C-22.49322266 18.23435547 -21.42394531 17.65621094 -20.32226562 17.06054688 C-19.26845703 16.49013672 -18.21464844 15.91972656 -17.12890625 15.33203125 C-16.09137207 14.77080566 -15.05383789 14.20958008 -13.98486328 13.63134766 C-10.53936754 11.74824586 -7.12458786 9.81443163 -3.72241211 7.85424805 C-2 7 -2 7 0 7 C0 5.68 0 4.36 0 3 C-0.7425 3.515625 -1.485 4.03125 -2.25 4.5625 C-5 6 -5 6 -9 5 C-6.03 3.35 -3.06 1.7 0 0 Z " fill="#E3CAA3" transform="translate(131,42)"/>
<path d="M0 0 C4.25954035 1.29005469 7.87205391 2.9170546 11.6953125 5.1875 C12.74074219 5.80367187 13.78617188 6.41984375 14.86328125 7.0546875 C15.93964844 7.69664063 17.01601562 8.33859375 18.125 9 C20.27283769 10.27184681 22.42125162 11.54272113 24.5703125 12.8125 C25.51664551 13.37582031 26.46297852 13.93914062 27.43798828 14.51953125 C29.5949039 15.76591359 31.75715108 16.91847332 34 18 C34 17.34 34 16.68 34 16 C33.175 15.505 32.35 15.01 31.5 14.5 C30.675 14.005 29.85 13.51 29 13 C29 12.34 29 11.68 29 11 C30.32 11.33 31.64 11.66 33 12 C33 12.66 33 13.32 33 14 C34.32 14 35.64 14 37 14 C37 16.31 37 18.62 37 21 C33.19938229 20.30584945 30.23168811 18.60472152 26.87890625 16.7265625 C26.2971312 16.40215179 25.71535614 16.07774109 25.11595154 15.74349976 C23.26232353 14.70835825 21.41245063 13.66669638 19.5625 12.625 C18.32249558 11.93188012 17.08226339 11.23916754 15.84179688 10.546875 C10.85666214 7.75900032 5.88470296 4.96169396 1 2 C1.11448845 3.92625985 1.11448845 3.92625985 2 6 C4.29847487 7.57314972 4.29847487 7.57314972 7.0625 8.75 C8.44115234 9.39195313 8.44115234 9.39195313 9.84765625 10.046875 C10.91306641 10.51867187 10.91306641 10.51867187 12 11 C12 11.66 12 12.32 12 13 C7.39256115 11.6835889 3.62216462 10.19095455 0 7 C-0.375 3.25 -0.375 3.25 0 0 Z " fill="#E4CCA9" transform="translate(158,53)"/>
<path d="M0 0 C1.65 0.33 3.3 0.66 5 1 C5 18.49 5 35.98 5 54 C4.34 53.67 3.68 53.34 3 53 C3.33 36.5 3.66 20 4 3 C3.01 3.495 3.01 3.495 2 4 C1.67 17.86 1.34 31.72 1 46 C0.01 45.67 -0.98 45.34 -2 45 C-1.34 45 -0.68 45 0 45 C0 30.15 0 15.3 0 0 Z " fill="#D6BD9C" transform="translate(229,72)"/>
<path d="M0 0 C4.96098133 1.55030667 9.37623325 4.27971646 13 8 C13.625 11.25 13.625 11.25 13 14 C11 16 11 16 7.5 16.25 C4 16 4 16 2 14 C1.875 10.875 1.875 10.875 2 8 C4.97 8.495 4.97 8.495 8 9 C6.19823976 7.10341027 4.39827714 5.53821269 2.3125 3.9375 C1.549375 3.298125 0.78625 2.65875 0 2 C0 1.34 0 0.68 0 0 Z " fill="#F9F4EC" transform="translate(556,141)"/>
<path d="M0 0 C1.32 0 2.64 0 4 0 C4 14.52 4 29.04 4 44 C4.66 44.33 5.32 44.66 6 45 C5.01 45 4.02 45 3 45 C2.505 24.21 2.505 24.21 2 3 C1.13436278 8.1599615 1.13436278 8.1599615 0.79467773 13.26123047 C0.77473251 14.04158661 0.75478729 14.82194275 0.73423767 15.62594604 C0.70916893 16.85911057 0.70916893 16.85911057 0.68359375 18.1171875 C0.66281265 18.97434357 0.64203156 19.83149963 0.62062073 20.71463013 C0.55558739 23.43467714 0.49645659 26.15481517 0.4375 28.875 C0.39427076 30.72657166 0.3506551 32.57813434 0.30664062 34.4296875 C0.19995379 38.95303331 0.09855806 43.47647007 0 48 C-0.33 48 -0.66 48 -1 48 C-1.02526945 41.3247966 -1.04283268 34.64960543 -1.05493164 27.97436523 C-1.05997325 25.70157409 -1.06680637 23.4287862 -1.07543945 21.15600586 C-1.08751261 17.89696449 -1.09322987 14.63796583 -1.09765625 11.37890625 C-1.10281754 10.35599991 -1.10797882 9.33309357 -1.11329651 8.27919006 C-1.11337204 7.33829025 -1.11344757 6.39739044 -1.11352539 5.42797852 C-1.115746 4.59524918 -1.11796661 3.76251984 -1.12025452 2.90455627 C-1 1 -1 1 0 0 Z " fill="#D3B68F" transform="translate(66,68)"/>
<path d="M0 0 C0.66 0 1.32 0 2 0 C2.07442006 5.01705721 2.12872908 10.03378972 2.16479492 15.05126953 C2.17983738 16.75640463 2.20027653 18.46150132 2.22631836 20.16650391 C2.26290284 22.62412012 2.27977173 25.08122269 2.29296875 27.5390625 C2.30845261 28.29555084 2.32393646 29.05203918 2.33988953 29.83145142 C2.341397 34.62341947 1.62135594 37.83733177 -1 42 C-4.42908194 45.03035148 -6.86644298 46.23404051 -11.375 46.25 C-12.57125 46.1675 -13.7675 46.085 -15 46 C-15 45.67 -15 45.34 -15 45 C-14.32453125 44.85304687 -13.6490625 44.70609375 -12.953125 44.5546875 C-12.06109375 44.33039063 -11.1690625 44.10609375 -10.25 43.875 C-9.36828125 43.66617188 -8.4865625 43.45734375 -7.578125 43.2421875 C-3.95719925 41.49755964 -2.91404444 39.51937203 -1 36 C-0.43404323 33.17392722 -0.39529644 30.41532858 -0.390625 27.5390625 C-0.37408875 26.74849457 -0.35755249 25.95792664 -0.34051514 25.1434021 C-0.29222512 22.63718756 -0.27070757 20.13157888 -0.25 17.625 C-0.22182426 15.91793858 -0.19189458 14.21090515 -0.16015625 12.50390625 C-0.08647191 8.33598743 -0.03678188 4.1684012 0 0 Z " fill="#ECD0A0" transform="translate(537,121)"/>
<path d="M0 0 C2.475 0.99 2.475 0.99 5 2 C5 17.51 5 33.02 5 49 C4.67 49 4.34 49 4 49 C4 33.82 4 18.64 4 3 C3.01 3.495 3.01 3.495 2 4 C1.67 17.86 1.34 31.72 1 46 C0.01 45.67 -0.98 45.34 -2 45 C-1.34 45 -0.68 45 0 45 C0 30.15 0 15.3 0 0 Z " fill="#D4B893" transform="translate(220,67)"/>
<path d="M0 0 C0.66 0.33 1.32 0.66 2 1 C3.19388403 23.59489033 3.19388403 23.59489033 3 34 C0.69 34 -1.62 34 -4 34 C-4.495 32.515 -4.495 32.515 -5 31 C-3.68 31 -2.36 31 -1 31 C-1.01160156 30.27039063 -1.02320313 29.54078125 -1.03515625 28.7890625 C-1.11836783 19.16029394 -0.60378262 9.60661268 0 0 Z " fill="#DBC7A6" transform="translate(372,120)"/>
<path d="M0 0 C5 1 5 1 7 2 C7 2.66 7 3.32 7 4 C4.525 3.505 4.525 3.505 2 3 C1.67 24.12 1.34 45.24 1 67 C0.01 67.495 0.01 67.495 -1 68 C-1.86625 67.5359375 -1.86625 67.5359375 -2.75 67.0625 C-5.60616511 65.71375537 -7.87975041 65.85817047 -11 66 C-10.34 65.01 -9.68 64.02 -9 63 C-5.47930015 63.58678331 -3.28700157 64.35649921 0 66 C0 44.22 0 22.44 0 0 Z " fill="#DCC097" transform="translate(152,22)"/>
<path d="M0 0 C0.99 0.33 1.98 0.66 3 1 C3.5390625 3.6640625 3.5390625 3.6640625 3 7 C0.42783115 9.31059236 -2.57112882 10.78530967 -5.625 12.375 C-6.48351562 12.84687744 -7.34203125 13.31875488 -8.2265625 13.80493164 C-10.8079588 15.2221547 -13.40295634 16.61171627 -16 18 C-18.07184963 19.13138081 -20.13782202 20.27160279 -22.19677734 21.42626953 C-23.89509194 22.37866854 -25.60350368 23.31299788 -27.3125 24.24609375 C-29.92198577 25.94908664 -31.34778903 27.38973615 -33 30 C-32.34 30.33 -31.68 30.66 -31 31 C-31.99 31 -32.98 31 -34 31 C-34 29.02 -34 27.04 -34 25 C-33.21874756 24.56655273 -32.43749512 24.13310547 -31.63256836 23.68652344 C-28.70447634 22.06171134 -25.77660492 20.43650308 -22.84887695 18.81103516 C-21.58724495 18.11068355 -20.32552793 17.41048507 -19.0637207 16.71044922 C-16.07573732 15.05269192 -13.08919349 13.39252387 -10.10522461 11.72753906 C-8.27537661 10.70953415 -6.44177317 9.69814527 -4.59985352 8.70214844 C-1.0992735 6.94154543 -1.0992735 6.94154543 0.9375 3.75 C0.958125 3.1725 0.97875 2.595 1 2 C-0.32 2.33 -1.64 2.66 -3 3 C-2.01 2.01 -1.02 1.02 0 0 Z " fill="#E1C7A0" transform="translate(130,53)"/>
<path d="M0 0 C0 0.66 0 1.32 0 2 C-0.99 2.495 -0.99 2.495 -2 3 C-2.33 16.53 -2.66 30.06 -3 44 C-3.99 44 -4.98 44 -6 44 C-5.93129299 38.05475575 -5.84341068 32.11022632 -5.73754883 26.16552734 C-5.70424321 24.14217029 -5.676229 22.11871907 -5.65356445 20.09521484 C-5.62012165 17.19067148 -5.56781231 14.28699558 -5.51171875 11.3828125 C-5.50532883 10.47443634 -5.4989389 9.56606018 -5.49235535 8.63015747 C-5.47256119 7.78943695 -5.45276703 6.94871643 -5.43237305 6.08251953 C-5.42126999 5.34083527 -5.41016693 4.599151 -5.39872742 3.83499146 C-4.75532123 0.8739589 -2.9092606 0 0 0 Z " fill="#EEE1CE" transform="translate(85,57)"/>
<path d="M0 0 C4.01649651 0.60229224 7.01136063 1.88583052 10.5625 3.8359375 C11.60664063 4.40570313 12.65078125 4.97546875 13.7265625 5.5625 C14.80679688 6.160625 15.88703125 6.75875 17 7.375 C18.62035156 8.26058594 18.62035156 8.26058594 20.2734375 9.1640625 C23.19015487 10.76285573 26.10290535 12.36591668 29 14 C29.93972656 14.51771973 30.87945312 15.03543945 31.84765625 15.56884766 C32.55792969 16.04112793 33.26820313 16.5134082 34 17 C34 17.66 34 18.32 34 19 C34.7425 19.12375 35.485 19.2475 36.25 19.375 C38.80141485 19.95486701 40.7267573 20.73708739 43 22 C43 22.66 43 23.32 43 24 C38.63281215 22.67142288 34.83992105 20.96174742 30.859375 18.734375 C30.29228821 18.41849426 29.72520142 18.10261353 29.14093018 17.77716064 C27.94629526 17.11050309 26.75301343 16.44141558 25.56103516 15.77001953 C23.77140814 14.76205759 21.97795835 13.7612178 20.18359375 12.76171875 C4.48871917 3.99676667 4.48871917 3.99676667 0 1 C0 0.67 0 0.34 0 0 Z " fill="#ECD4AD" transform="translate(159,26)"/>
<path d="M0 0 C0.33 0 0.66 0 1 0 C1.11651725 4.37477474 1.18736 8.74914827 1.25 13.125 C1.28351563 14.3625 1.31703125 15.6 1.3515625 16.875 C1.46212533 27.15734365 1.46212533 27.15734365 -0.703125 30.6796875 C-4.48488935 34.50004128 -7.02891486 36.13427049 -12.42578125 36.29296875 C-14.05494668 36.27318132 -15.68398573 36.23762791 -17.3125 36.1875 C-18.56643555 36.16719727 -18.56643555 36.16719727 -19.84570312 36.14648438 C-21.89741498 36.11131217 -23.94879275 36.05751048 -26 36 C-26 35.34 -26 34.68 -26 34 C-24.24623047 33.94392578 -24.24623047 33.94392578 -22.45703125 33.88671875 C-20.90882325 33.8210372 -19.36064758 33.75459061 -17.8125 33.6875 C-17.04357422 33.66494141 -16.27464844 33.64238281 -15.48242188 33.61914062 C-10.92556068 33.40400984 -7.59362468 33.08118825 -4 30 C0.02200586 24.51302512 -0.44718553 18.15917215 -0.3125 11.625 C-0.27833984 10.50738281 -0.24417969 9.38976562 -0.20898438 8.23828125 C-0.12683927 5.49228778 -0.05757872 2.74660018 0 0 Z " fill="#ECCF9D" transform="translate(308,131)"/>
<path d="M0 0 C0.99 0.33 1.98 0.66 3 1 C3.2265625 3.32421875 3.2265625 3.32421875 3 6 C1.5234375 7.51953125 1.5234375 7.51953125 -0.625 8.8125 C-1.85283203 9.56273438 -1.85283203 9.56273438 -3.10546875 10.328125 C-4.53826172 11.15570313 -4.53826172 11.15570313 -6 12 C-7.10988281 12.65484375 -8.21976563 13.3096875 -9.36328125 13.984375 C-24.91195427 23.07621411 -24.91195427 23.07621411 -30 25 C-30.66 24.67 -31.32 24.34 -32 24 C-28.68803022 22.1032393 -25.37532578 20.20776518 -22.0625 18.3125 C-21.13630859 17.78205078 -20.21011719 17.25160156 -19.25585938 16.70507812 C-16.50628166 15.13251263 -13.753378 13.56589983 -11 12 C-10.1322998 11.50161621 -9.26459961 11.00323242 -8.37060547 10.48974609 C-7.16428467 9.80452881 -7.16428467 9.80452881 -5.93359375 9.10546875 C-4.86516235 8.49481567 -4.86516235 8.49481567 -3.77514648 7.87182617 C-2 7 -2 7 0 7 C0 5.68 0 4.36 0 3 C-1.98 3.33 -3.96 3.66 -6 4 C-4.03617993 2.49440461 -2.21736634 1.10868317 0 0 Z " fill="#DBC19D" transform="translate(130,65)"/>
<path d="M0 0 C2.31 0 4.62 0 7 0 C7.33 2.31 7.66 4.62 8 7 C10.97 7 13.94 7 17 7 C17 5.02 17 3.04 17 1 C17.33 1 17.66 1 18 1 C18 3.31 18 5.62 18 8 C13.545 8.495 13.545 8.495 9 9 C8.67 9.99 8.34 10.98 8 12 C5.03 10.02 2.06 8.04 -1 6 C-0.67 4.02 -0.34 2.04 0 0 Z " fill="#F4EBDD" transform="translate(562,130)"/>
<path d="M0 0 C6.75 -0.125 6.75 -0.125 9 1 C9 3.64 9 6.28 9 9 C6.03 9 3.06 9 0 9 C0 6.03 0 3.06 0 0 Z " fill="#E0C9A5" transform="translate(366,157)"/>
<path d="M0 0 C0.99 0.33 1.98 0.66 3 1 C3 7.27 3 13.54 3 20 C0.03 20 -2.94 20 -6 20 C-6 19.01 -6 18.02 -6 17 C-4.02 17 -2.04 17 0 17 C0 11.39 0 5.78 0 0 Z " fill="#E2CDA9" transform="translate(348,146)"/>
<path d="M0 0 C5.00362942 0.46909026 9.46734683 2.42612589 13 6 C14.1150907 9.59593529 13.93513832 13.03411739 13.78125 16.76953125 C13.76993042 17.80567062 13.75861084 18.84181 13.74694824 19.90934753 C13.70223407 23.21229536 13.60187697 26.5108693 13.5 29.8125 C13.45986676 32.05397367 13.42336573 34.29551553 13.390625 36.53710938 C13.30251676 42.02622683 13.16873241 47.51280103 13 53 C12.34 52.67 11.68 52.34 11 52 C11.33 37.15 11.66 22.3 12 7 C9.525 6.01 9.525 6.01 7 5 C4.61911331 3.73817611 2.32382349 2.36695499 0 1 C0 0.67 0 0.34 0 0 Z " fill="#D9BD96" transform="translate(202,50)"/>
<path d="M0 0 C2 1 2 1 2.62109375 2.671875 C3.09148053 5.56208656 3.0943182 8.32272535 3.0625 11.25 C3.05347656 12.32765625 3.04445313 13.4053125 3.03515625 14.515625 C3.02355469 15.33546875 3.01195312 16.1553125 3 17 C1.35 17 -0.3 17 -2 17 C-2.25706972 11.08739655 -1.2982126 5.76081841 0 0 Z " fill="#E5D6BD" transform="translate(483,135)"/>
<path d="M0 0 C0.66666667 1.33333333 1.33333333 2.66666667 2 4 C2.3491748 4.61713867 2.69834961 5.23427734 3.05810547 5.87011719 C4.09852624 8.22279494 4.23184651 9.77074429 4.1953125 12.328125 C4.18564453 13.52695313 4.18564453 13.52695313 4.17578125 14.75 C4.15902344 15.575 4.14226562 16.4 4.125 17.25 C4.11597656 18.09046875 4.10695313 18.9309375 4.09765625 19.796875 C4.07415817 21.86470604 4.03828908 23.93238995 4 26 C0.04 26 -3.92 26 -8 26 C-7.67 25.34 -7.34 24.68 -7 24 C-4.03 24.33 -1.06 24.66 2 25 C2 18.73 2 12.46 2 6 C1.01 5.67 0.02 5.34 -1 5 C-0.67 3.35 -0.34 1.7 0 0 Z " fill="#F5E5CA" transform="translate(349,141)"/>
<path d="M0 0 C9 0 9 0 12 2 C12.2208564 4.95064148 12.28060989 7.68368231 12.1875 10.625 C12.17396484 11.42679688 12.16042969 12.22859375 12.14648438 13.0546875 C12.11109051 15.03674378 12.05728234 17.01845551 12 19 C11.67 19 11.34 19 11 19 C10.67 14.05 10.34 9.1 10 4 C8.02 4 6.04 4 4 4 C3.01 3.34 2.02 2.68 1 2 C1 7.61 1 13.22 1 19 C0.67 19 0.34 19 0 19 C0 12.73 0 6.46 0 0 Z " fill="#CBBAA3" transform="translate(330,144)"/>
<path d="M0 0 C3.65316671 1.24976756 4.78065836 1.67098753 7 5 C7.22705078 8.1862793 7.22705078 8.1862793 7.1953125 12.07421875 C7.1924826 12.7580513 7.18965271 13.44188385 7.18673706 14.1464386 C7.17555684 16.32697165 7.15045691 18.50709145 7.125 20.6875 C7.11496738 22.16731177 7.10584202 23.64712999 7.09765625 25.12695312 C7.07562481 28.751436 7.04111002 32.37567766 7 36 C6.01 36.495 6.01 36.495 5 37 C5.01571045 35.74340576 5.01571045 35.74340576 5.03173828 34.46142578 C5.06580019 31.35661836 5.09088911 28.25190608 5.10986328 25.14697266 C5.12488107 23.1408864 5.15028981 21.13488676 5.17578125 19.12890625 C5.18544922 17.24365234 5.18544922 17.24365234 5.1953125 15.3203125 C5.20578613 14.15773926 5.21625977 12.99516602 5.22705078 11.79736328 C5.29261997 8.86089721 5.29261997 8.86089721 3 7 C1.96157435 4.68351201 0.9578025 2.35096976 0 0 Z " fill="#F2E1C5" transform="translate(303,123)"/>
<path d="M0 0 C3.01488424 0.89631694 4.71802222 1.67912874 6.8125 4.0625 C8.48477884 8.19918975 8.19910477 11.55332677 8 16 C5.03 16 2.06 16 -1 16 C-1 15.34 -1 14.68 -1 14 C0.98 14 2.96 14 5 14 C4.85831863 12.56208484 4.71148957 11.1246763 4.5625 9.6875 C4.48128906 8.88699219 4.40007813 8.08648437 4.31640625 7.26171875 C4.04734307 4.83912821 4.04734307 4.83912821 3 2 C2.01 1.67 1.02 1.34 0 1 C0 0.67 0 0.34 0 0 Z " fill="#E7D3B0" transform="translate(571,121)"/>
<path d="M0 0 C1.98 0 3.96 0 6 0 C6.09765625 6.15234375 6.09765625 6.15234375 6 8 C5 9 5 9 2.4375 9.0625 C1.633125 9.041875 0.82875 9.02125 0 9 C0 6.03 0 3.06 0 0 Z " fill="#FCF7F1" transform="translate(401,130)"/>
<path d="M0 0 C0.66 0 1.32 0 2 0 C2 2.64 2 5.28 2 8 C-0.95664519 9.4783226 -3.74229737 9.06032783 -7 9 C-6.34 8.67 -5.68 8.34 -5 8 C-5 6.02 -5 4.04 -5 2 C-3.35 2 -1.7 2 0 2 C0 1.34 0 0.68 0 0 Z " fill="#F2EADD" transform="translate(339,128)"/>
<path d="M0 0 C2.31 0 4.62 0 7 0 C7 2.31 7 4.62 7 7 C4.69 7 2.38 7 0 7 C0 4.69 0 2.38 0 0 Z " fill="#C2A989" transform="translate(137,132)"/>
<path d="M0 0 C2.31 0 4.62 0 7 0 C7 2.31 7 4.62 7 7 C4.69 7 2.38 7 0 7 C0 4.69 0 2.38 0 0 Z " fill="#C2A98A" transform="translate(146,132)"/>
<path d="M0 0 C2.31 0 4.62 0 7 0 C7 2.31 7 4.62 7 7 C4.69 7 2.38 7 0 7 C0 4.69 0 2.38 0 0 Z " fill="#C6AD8C" transform="translate(146,123)"/>
<path d="M0 0 C1.4540625 0.0309375 1.4540625 0.0309375 2.9375 0.0625 C2.9375 2.3725 2.9375 4.6825 2.9375 7.0625 C0.6275 7.0625 -1.6825 7.0625 -4.0625 7.0625 C-4.10504356 5.06295254 -4.10330783 3.06208364 -4.0625 1.0625 C-3.0625 0.0625 -3.0625 0.0625 0 0 Z " fill="#C5AB8A" transform="translate(141.0625,122.9375)"/>
<path d="M0 0 C0.515625 0.2475 1.03125 0.495 1.5625 0.75 C1.9375 3 1.9375 3 1.5625 5.75 C-1.25 8.125 -1.25 8.125 -4.4375 9.75 C-5.4275 9.42 -6.4175 9.09 -7.4375 8.75 C-2.6875 5.75 -2.6875 5.75 -0.4375 5.75 C-0.4375 4.43 -0.4375 3.11 -0.4375 1.75 C-1.4275 1.75 -2.4175 1.75 -3.4375 1.75 C-3.4375 2.41 -3.4375 3.07 -3.4375 3.75 C-7.8925 5.235 -7.8925 5.235 -12.4375 6.75 C-9.05487472 3.36737472 -5.10426116 -0.52351396 0 0 Z " fill="#ECD4AC" transform="translate(131.4375,31.25)"/>
<path d="M0 0 C4.875 1.75 4.875 1.75 6 4 C6.07116382 6.37402501 6.08409085 8.75000677 6.0625 11.125 C6.05347656 12.40632812 6.04445313 13.68765625 6.03515625 15.0078125 C6.02355469 15.99523437 6.01195312 16.98265625 6 18 C5.67 16.68 5.34 15.36 5 14 C4.34 14 3.68 14 3 14 C2.92652344 12.98679688 2.92652344 12.98679688 2.8515625 11.953125 C2.77679688 11.06109375 2.70203125 10.1690625 2.625 9.25 C2.55539062 8.36828125 2.48578125 7.4865625 2.4140625 6.578125 C2.00149945 4.00933618 1.28839043 2.24158985 0 0 Z " fill="#EDD9B8" transform="translate(412,124)"/>
<path d="M0 0 C0.763125 0.804375 1.52625 1.60875 2.3125 2.4375 C6.59878391 6.09375182 11.58536645 5.89401963 17 6 C14.56758315 8.43241685 12.54951431 8.80633578 9.17578125 9.1640625 C5.86712324 8.91457662 3.86696162 7.45304531 1.25 5.51953125 C0 4 0 4 0 0 Z " fill="#EBD8BA" transform="translate(512,158)"/>
<path d="M0 0 C0.99 0.33 1.98 0.66 3 1 C-2.04513064 6.46555819 -2.04513064 6.46555819 -6 7 C-8.60386425 6.91412788 -11.15751414 6.77568173 -13.75 6.5625 C-14.44738281 6.51029297 -15.14476562 6.45808594 -15.86328125 6.40429688 C-17.57596203 6.27525928 -19.28805066 6.13840386 -21 6 C-21 5.67 -21 5.34 -21 5 C-19.80761719 4.93941406 -18.61523438 4.87882813 -17.38671875 4.81640625 C-15.82030075 4.73198851 -14.25389512 4.64734113 -12.6875 4.5625 C-11.90181641 4.52318359 -11.11613281 4.48386719 -10.30664062 4.44335938 C-9.1706543 4.38051758 -9.1706543 4.38051758 -8.01171875 4.31640625 C-7.31522217 4.27974854 -6.61872559 4.24309082 -5.90112305 4.20532227 C-3.7783428 4.04418847 -3.7783428 4.04418847 -1 3 C-0.67 2.01 -0.34 1.02 0 0 Z " fill="#D3C2A8" transform="translate(303,158)"/>
<path d="M0 0 C0.33 0 0.66 0 1 0 C0.63166144 6.38453501 0.63166144 6.38453501 -2.4375 9.375 C-7.01214668 12.27599546 -9.62940222 12.08662254 -15 12 C-15 11.67 -15 11.34 -15 11 C-14.33613281 10.87625 -13.67226563 10.7525 -12.98828125 10.625 C-7.52759925 9.41074613 -7.52759925 9.41074613 -3.2578125 6.01953125 C-2.40240077 4.58962703 -1.59249921 3.13109275 -0.83984375 1.64453125 C-0.56269531 1.10183594 -0.28554688 0.55914062 0 0 Z " fill="#EACA92" transform="translate(537,155)"/>
<path d="M0 0 C2.66730266 1.80688244 3.84920589 3.36408537 4.59375 6.50390625 C5.27440238 12.18890054 5.32787066 16.07475143 2 21 C0.68 20.67 -0.64 20.34 -2 20 C-1.34 19.54625 -0.68 19.0925 0 18.625 C3.03388851 14.64302133 2.53291858 10.84194597 2 6 C1.12899451 2.5385946 1.12899451 2.5385946 0 0 Z " fill="#CBB9A0" transform="translate(411,124)"/>
<path d="M0 0 C0.33 0 0.66 0 1 0 C0.9375 3.25 0.9375 3.25 0 7 C-3.77089202 10.22097027 -3.77089202 10.22097027 -7 11 C-10.14939236 10.73547101 -13.00936974 10.00365823 -16 9 C-13.91478012 8.44425803 -11.88392282 7.98330259 -9.74609375 7.67578125 C-7.36248759 7.30069602 -5.24946053 6.88189078 -3 6 C-0.85334283 3.04765553 -0.85334283 3.04765553 0 0 Z " fill="#D7C6AC" transform="translate(575,155)"/>
<path d="M0 0 C1.98 0 3.96 0 6 0 C6 1.98 6 3.96 6 6 C4.02 6 2.04 6 0 6 C0 4.02 0 2.04 0 0 Z " fill="#917858" transform="translate(366,157)"/>
<path d="M0 0 C1.98 0 3.96 0 6 0 C6 1.98 6 3.96 6 6 C4.02 6 2.04 6 0 6 C0 4.02 0 2.04 0 0 Z " fill="#E8DFD2" transform="translate(70,142)"/>
<path d="M0 0 C3.34034017 1.17363303 5.90035508 2.08098145 8 5 C7.85546875 7.69921875 7.85546875 7.69921875 7.1875 10.6875 C6.97480469 11.68136719 6.76210938 12.67523438 6.54296875 13.69921875 C6.36378906 14.45847656 6.18460938 15.21773437 6 16 C5.67 16 5.34 16 5 16 C4.93941406 15.24074219 4.87882813 14.48148438 4.81640625 13.69921875 C4.73261719 12.70535156 4.64882813 11.71148437 4.5625 10.6875 C4.48128906 9.70136719 4.40007813 8.71523437 4.31640625 7.69921875 C4.08187441 4.90624401 4.08187441 4.90624401 3 2 C2.01 1.67 1.02 1.34 0 1 C0 0.67 0 0.34 0 0 Z " fill="#E6D6BD" transform="translate(571,142)"/>
<path d="M0 0 C2.31 0 4.62 0 7 0 C7 0.33 7 0.66 7 1 C5.35 1 3.7 1 2 1 C1.67 2.65 1.34 4.3 1 6 C-1.97 6 -4.94 6 -8 6 C-8 5.34 -8 4.68 -8 4 C-4.535 3.505 -4.535 3.505 -1 3 C-0.67 2.01 -0.34 1.02 0 0 Z " fill="#ECD09E" transform="translate(480,161)"/>
<path d="M0 0 C2.46800047 1.15173355 4.04783565 2.04783565 6 4 C6.1953125 6.6015625 6.1953125 6.6015625 6.125 9.625 C6.10695313 10.62789062 6.08890625 11.63078125 6.0703125 12.6640625 C6.03550781 13.82035156 6.03550781 13.82035156 6 15 C3 13 3 13 2.3046875 10.72265625 C2.16289062 9.84480469 2.02109375 8.96695313 1.875 8.0625 C1.40015268 5.23424271 0.90995063 2.7298519 0 0 Z " fill="#EEDCBE" transform="translate(346,124)"/>
<path d="M0 0 C4.67105792 1.55701931 8.08705685 4.08447373 12 7 C11.34 7.66 10.68 8.32 10 9 C8.51444617 8.07265428 7.03672494 7.13275187 5.5625 6.1875 C4.73878906 5.66542969 3.91507813 5.14335937 3.06640625 4.60546875 C1 3 1 3 0 0 Z " fill="#ECDFC9" transform="translate(556,141)"/>
<path d="M0 0 C-0.61488281 0.31453125 -1.22976562 0.6290625 -1.86328125 0.953125 C-2.67152344 1.38109375 -3.47976562 1.8090625 -4.3125 2.25 C-5.51326172 2.87648438 -5.51326172 2.87648438 -6.73828125 3.515625 C-9.13190204 5.08656783 -10.43301591 6.6267037 -12 9 C-11.34 9.33 -10.68 9.66 -10 10 C-10.99 10 -11.98 10 -13 10 C-13 8.02 -13 6.04 -13 4 C-11.59248779 3.13083113 -10.1735479 2.28014851 -8.75 1.4375 C-7.96109375 0.96183594 -7.1721875 0.48617187 -6.359375 -0.00390625 C-3.69155375 -1.13022151 -2.65498232 -1.0169313 0 0 Z " fill="#D8BC95" transform="translate(109,74)"/>
<path d="M0 0 C1.98 0 3.96 0 6 0 C6 1.65 6 3.3 6 5 C4.02 5 2.04 5 0 5 C0 3.35 0 1.7 0 0 Z " fill="#EFE8DE" transform="translate(70,150)"/>
<path d="M0 0 C1.65 0 3.3 0 5 0 C5 1.98 5 3.96 5 6 C3.35 6 1.7 6 0 6 C0 4.02 0 2.04 0 0 Z " fill="#EDE5DA" transform="translate(215,142)"/>
<path d="M0 0 C1.65 0 3.3 0 5 0 C5 1.98 5 3.96 5 6 C3.35 6 1.7 6 0 6 C0 4.02 0 2.04 0 0 Z " fill="#EDE5DA" transform="translate(207,142)"/>
<path d="M0 0 C2 2 2 2 2.125 4.625 C2.08375 5.40875 2.0425 6.1925 2 7 C1.34 7 0.68 7 0 7 C0 5.68 0 4.36 0 3 C-0.7425 3.515625 -1.485 4.03125 -2.25 4.5625 C-5 6 -5 6 -9 5 C-6.03 3.35 -3.06 1.7 0 0 Z " fill="#EAD2AD" transform="translate(131,42)"/>
<path d="M0 0 C4 2 8 4 12 6 C5.77861446 7.46385542 5.77861446 7.46385542 2.0625 5.25 C0 3 0 3 0 0 Z " fill="#EFE0C6" transform="translate(554,160)"/>
<path d="M0 0 C0.99 0.33 1.98 0.66 3 1 C3 2.65 3 4.3 3 6 C2.01 6 1.02 6 0 6 C0 5.01 0 4.02 0 3 C-1.98 3.33 -3.96 3.66 -6 4 C-4.03617993 2.49440461 -2.21736634 1.10868317 0 0 Z " fill="#E6D1B2" transform="translate(130,65)"/>
<path d="M0 0 C5 1 5 1 7 2 C7 2.66 7 3.32 7 4 C5.35 3.67 3.7 3.34 2 3 C1.67 6.3 1.34 9.6 1 13 C0.67 13 0.34 13 0 13 C0 8.71 0 4.42 0 0 Z " fill="#EED5A9" transform="translate(152,22)"/>
<path d="M0 0 C1.32 0.33 2.64 0.66 4 1 C4 3.31 4 5.62 4 8 C2.68 7.34 1.36 6.68 0 6 C0 4.02 0 2.04 0 0 Z " fill="#DECAAB" transform="translate(558,149)"/>
<path d="M0 0 C1.65 0 3.3 0 5 0 C5 1.65 5 3.3 5 5 C3.35 5 1.7 5 0 5 C0 3.35 0 1.7 0 0 Z " fill="#F4EFE8" transform="translate(215,150)"/>
<path d="M0 0 C1.65 0 3.3 0 5 0 C5 1.65 5 3.3 5 5 C3.35 5 1.7 5 0 5 C0 3.35 0 1.7 0 0 Z " fill="#F5F0EA" transform="translate(78,150)"/>
<path d="M0 0 C1.65 0 3.3 0 5 0 C5 1.65 5 3.3 5 5 C3.35 5 1.7 5 0 5 C0 3.35 0 1.7 0 0 Z " fill="#F4EFE8" transform="translate(207,150)"/>
<path d="M0 0 C1.65 0 3.3 0 5 0 C5 1.65 5 3.3 5 5 C3.35 5 1.7 5 0 5 C0 3.35 0 1.7 0 0 Z " fill="#F2EBE3" transform="translate(78,142)"/>
<path d="M0 0 C0.75 1.6875 0.75 1.6875 1 4 C-1.13381449 7.2769294 -2.25018012 8.75006004 -6 10 C-6 9.01 -6 8.02 -6 7 C-4.67732273 5.98594743 -3.34275169 4.98731742 -2 4 C-0.7483533 1.91665365 -0.7483533 1.91665365 0 0 Z " fill="#DCCAAF" transform="translate(535,155)"/>
<path d="M0 0 C4.75481646 0.57634139 7.97048212 2.55068521 12 5 C9.44345185 5.95582656 8.39658231 6.17802782 5.859375 5.0390625 C5.16328125 4.57242188 4.4671875 4.10578125 3.75 3.625 C3.04359375 3.16351563 2.3371875 2.70203125 1.609375 2.2265625 C1.07828125 1.82179687 0.5471875 1.41703125 0 1 C0 0.67 0 0.34 0 0 Z " fill="#E7D0AC" transform="translate(202,50)"/>
<path d="M0 0 C1.32 0 2.64 0 4 0 C4 1.65 4 3.3 4 5 C2.35 5 0.7 5 -1 5 C-0.67 3.35 -0.34 1.7 0 0 Z " fill="#FEFBF8" transform="translate(336,131)"/>
<path d="M0 0 C0.66 0 1.32 0 2 0 C1.67 2.97 1.34 5.94 1 9 C0.01 9 -0.98 9 -2 9 C-1.125 1.125 -1.125 1.125 0 0 Z " fill="#D9C1A1" transform="translate(96,90)"/>
<path d="M0 0 C1.32 0.33 2.64 0.66 4 1 C3.34 1.66 2.68 2.32 2 3 C3.32 3.33 4.64 3.66 6 4 C5.34 4.66 4.68 5.32 4 6 C2.68 6 1.36 6 0 6 C0 4.02 0 2.04 0 0 Z " fill="#DCC098" transform="translate(96,67)"/>
<path d="M0 0 C2.475 0.495 2.475 0.495 5 1 C5 1.66 5 2.32 5 3 C5.969375 3.28875 6.93875 3.5775 7.9375 3.875 C11 5 11 5 12 7 C7.39104317 5.68315519 3.85859765 3.84801255 0 1 C0 0.67 0 0.34 0 0 Z " fill="#DDC29B" transform="translate(170,66)"/>
<path d="M0 0 C1.98 1.65 3.96 3.3 6 5 C5.67 5.99 5.34 6.98 5 8 C2.5 6.25 2.5 6.25 0 4 C0 2.68 0 1.36 0 0 Z " fill="#ECE1CF" transform="translate(512,158)"/>
<path d="M0 0 C0.33 0 0.66 0 1 0 C1 3.63 1 7.26 1 11 C0.01 11.33 -0.98 11.66 -2 12 C-1.34 8.04 -0.68 4.08 0 0 Z " fill="#ECD09F" transform="translate(350,130)"/>
</svg>
